<svg width="96" height="65" viewBox="0 0 96 65" fill="none" xmlns="http://www.w3.org/2000/svg">
<path d="M47.9998 25.3814L47.8985 25.3207L37.0093 19.0259V6.33523L47.9998 0L48.101 0.0607231L58.9903 6.35547V19.0259L47.9998 25.3814ZM37.4141 18.8033L47.9998 24.9158L58.5855 18.8033V6.57812L47.9998 0.465526L37.4141 6.57812V18.8033Z" fill="black"/>
<path d="M50.9951 5.36301L43.4454 9.57298V19.1062L40.1665 17.2036V8.1562L47.9995 3.64258L50.9951 5.36301Z" fill="url(#paint0_linear_2752_8499)"/>
<path d="M58.7272 46.4505L47.9998 30.0963L37.2724 46.4505L26.2212 40.0748V27.3841L37.2117 21.0488L47.9998 27.2829L58.7879 21.0488L69.7784 27.3841V40.0748L58.7272 46.4505ZM47.9998 29.3676L58.8487 45.904L69.3737 39.8319V27.6067L58.7879 21.4941L47.9998 27.7282L37.2117 21.4941L26.626 27.6067V39.8319L37.1509 45.904L47.9998 29.3676Z" fill="black"/>
<path d="M58.7272 46.4505L47.9998 30.0963L37.2724 46.4505L26.2212 40.0748V27.3841L37.2117 21.0488L47.9998 27.2829L58.7879 21.0488L69.7784 27.3841V40.0748L58.7272 46.4505ZM47.9998 29.3676L58.8487 45.904L69.3737 39.8319V27.6067L58.7879 21.4941L47.9998 27.7282L37.2117 21.4941L26.626 27.6067V39.8319L37.1509 45.904L47.9998 29.3676Z" fill="black"/>
<path d="M55.1847 7.79149L47.4732 12.0825V21.4335L44.9634 19.9761V10.5036L52.5738 6.27344L55.1847 7.79149Z" fill="url(#paint1_linear_2752_8499)"/>
<path d="M55.8329 8.60156V17.2037L48.4653 21.4542V12.6901L55.8329 8.60156Z" fill="url(#paint2_linear_2752_8499)"/>
<path d="M66.8643 29.0651V38.3959L60.1242 42.282L58.6265 40.0556L64.1318 36.8576V27.4863L66.8643 29.0651Z" fill="url(#paint3_linear_2752_8499)"/>
<path d="M58.4241 24.793V31.6544L54.457 33.9618L52.3318 30.8246L51.0972 29.0232L58.4241 24.793Z" fill="url(#paint4_linear_2752_8499)"/>
<path d="M62.6543 26.6358V35.9261L57.7359 38.78L55.0034 34.7521L59.3146 32.2221V24.7129L62.6543 26.6358Z" fill="url(#paint5_linear_2752_8499)"/>
<path d="M29.1362 29.0651V38.3959L35.856 42.282L37.3741 40.0556L31.8484 36.8576V27.4863L29.1362 29.0651Z" fill="url(#paint6_linear_2752_8499)"/>
<path d="M37.5757 24.793V31.6545L41.5226 33.9619L43.668 30.8246L44.8824 29.0232L37.5757 24.793Z" fill="url(#paint7_linear_2752_8499)"/>
<path d="M33.3462 26.6358V35.9261L38.2443 38.78L40.9971 34.7521L36.6656 32.2221V24.7129L33.3462 26.6358Z" fill="url(#paint8_linear_2752_8499)"/>
<path d="M15.4407 61.6685V61.9933C15.4407 63.0984 14.3558 63.8692 12.8143 63.8692C11.2727 63.8692 10.1777 63.0984 10.1777 61.9933V58.5048C10.1777 57.3997 11.2727 56.6289 12.8143 56.6289C14.3558 56.6289 15.4407 57.3997 15.4407 58.5048V58.8499H14.8221V58.4845C14.8221 57.6934 13.9904 57.1459 12.8143 57.1459C11.6381 57.1459 10.8064 57.6934 10.8064 58.4845V62.0136C10.8064 62.8047 11.6381 63.3522 12.8143 63.3522C13.9904 63.3522 14.8221 62.8047 14.8221 62.0035V61.6692H15.4407V61.6685Z" fill="black"/>
<path d="M12.8143 64.048C11.1566 64.048 9.99951 63.203 9.99951 61.9939V58.5053C9.99951 57.2955 11.1573 56.4512 12.8143 56.4512C14.4656 56.4512 15.619 57.2962 15.619 58.5053V59.0287H14.6439V58.485C14.6439 57.8018 13.8915 57.3247 12.8143 57.3247C11.7371 57.3247 10.9847 57.8018 10.9847 58.485V62.0142C10.9847 62.6974 11.7371 63.1745 12.8143 63.1745C13.8915 63.1745 14.6439 62.693 14.6439 62.004V61.4908H15.619V61.9939C15.6196 63.2037 14.4656 64.048 12.8143 64.048ZM12.8143 56.8077C11.3666 56.8077 10.356 57.5055 10.356 58.5053V61.9939C10.356 62.9937 11.3666 63.6915 12.8143 63.6915C14.2557 63.6915 15.2624 62.9937 15.2624 61.9939V61.848H15.0004V62.004C15.0004 62.903 14.1015 63.531 12.8143 63.531C11.5271 63.531 10.6282 62.9074 10.6282 62.0142V58.485C10.6282 57.5918 11.5271 56.9682 12.8143 56.9682C14.1015 56.9682 15.0004 57.5918 15.0004 58.485V58.6715H15.2624V58.5053C15.2624 57.5055 14.2557 56.8077 12.8143 56.8077Z" fill="black"/>
<path d="M19.2535 63.8708C17.9353 63.8708 17.0122 63.2219 17.0122 62.2988V59.9255C17.0122 59.0025 17.9353 58.3535 19.2535 58.3535C20.5616 58.3535 21.4847 59.0025 21.4847 59.9255V62.2988C21.484 63.2219 20.5616 63.8708 19.2535 63.8708ZM20.896 59.9059C20.896 59.2772 20.2064 58.8414 19.2529 58.8414C18.2791 58.8414 17.5997 59.2772 17.5997 59.9059V62.3191C17.5997 62.9478 18.2791 63.3938 19.2529 63.3938C20.2064 63.3938 20.896 62.9478 20.896 62.3191V59.9059Z" fill="black"/>
<path d="M19.2536 64.0496C17.8287 64.0496 16.834 63.3302 16.834 62.2993V59.9261C16.834 58.8958 17.8287 58.1758 19.2536 58.1758C20.6721 58.1758 21.663 58.8952 21.663 59.9261V62.2993C21.663 63.3302 20.6721 64.0496 19.2536 64.0496ZM19.2536 58.5329C18.0393 58.5329 17.1905 59.1058 17.1905 59.9267V62.3C17.1905 63.1202 18.0387 63.6937 19.2536 63.6937C20.4621 63.6937 21.3065 63.1209 21.3065 62.3V59.9267C21.3058 59.1064 20.4621 58.5329 19.2536 58.5329ZM19.2536 63.5732C18.1751 63.5732 17.4221 63.0581 17.4221 62.3196V59.9064C17.4221 59.1743 18.1751 58.663 19.2536 58.663C20.3257 58.663 21.0749 59.1743 21.0749 59.9064V62.3196C21.0743 63.046 20.3086 63.5732 19.2536 63.5732ZM19.2536 59.0202C18.3851 59.0202 17.7792 59.3849 17.7792 59.9064V62.3196C17.7792 62.8475 18.3857 63.216 19.2536 63.216C20.1024 63.216 20.7177 62.8392 20.7177 62.3196V59.9064C20.7177 59.3925 20.1017 59.0202 19.2536 59.0202Z" fill="black"/>
<path d="M26.7678 59.7936C26.7678 59.2258 26.1695 58.8401 25.3074 58.8401C24.425 58.8401 23.7861 59.2455 23.776 59.8342V63.7992H23.1777V58.4246H23.776V59.033C24.1312 58.658 24.699 58.3535 25.4698 58.3535C26.3015 58.3535 26.9505 58.6783 27.2137 59.2055C27.5487 58.7595 28.1672 58.3535 29.0592 58.3535C30.1643 58.3535 30.9452 58.9213 30.9452 59.7936V63.7992H30.347V59.7936C30.347 59.2258 29.7488 58.8401 28.8968 58.8401C28.0245 58.8401 27.3857 59.2353 27.3552 59.8139V63.7992H26.7671V59.7936H26.7678Z" fill="black"/>
<path d="M31.1242 63.9779H30.1694V59.7941C30.1694 59.338 29.6467 59.0195 28.8975 59.0195C28.1222 59.0195 27.5627 59.3481 27.5342 59.8195V63.9779H26.5895V59.7941C26.5895 59.338 26.0624 59.0195 25.3074 59.0195C24.5189 59.0195 23.9625 59.3564 23.9543 59.8379V63.9779H22.9995V58.2468H23.9543V58.6408C24.3704 58.3388 24.8951 58.1758 25.4692 58.1758C26.2463 58.1758 26.8858 58.4441 27.2354 58.9047C27.6807 58.4384 28.331 58.1758 29.0592 58.1758C30.2747 58.1758 31.1236 58.8413 31.1236 59.7941V63.9779H31.1242ZM30.526 63.6214H30.7677V59.7941C30.7677 59.0392 30.0812 58.5323 29.0599 58.5323C28.4045 58.5323 27.9567 58.7626 27.6744 58.9884C27.9782 58.7829 28.4033 58.6624 28.8975 58.6624C29.856 58.6624 30.526 59.128 30.526 59.7941V63.6214ZM26.9467 63.6214H27.1783V59.8049C27.1859 59.6603 27.2246 59.5251 27.2899 59.4021L27.184 59.5435L27.0552 59.2853C26.8192 58.814 26.2267 58.5323 25.4705 58.5323C24.8183 58.5323 24.3742 58.7639 24.104 58.9764C24.4041 58.7778 24.8215 58.6624 25.3081 58.6624C26.273 58.6624 26.9467 59.128 26.9467 59.7941V63.6214ZM23.3567 63.6214H23.5984V59.8347C23.6016 59.64 23.6599 59.4617 23.764 59.3063L23.5984 59.4814V58.6034H23.3567V63.6214Z" fill="black"/>
<path d="M36.34 59.7936C36.34 59.2258 35.7418 58.8401 34.8797 58.8401C33.9972 58.8401 33.3584 59.2455 33.3482 59.8342V63.7992H32.75V58.4246H33.3482V59.033C33.7035 58.658 34.2713 58.3535 35.0421 58.3535C35.8738 58.3535 36.5227 58.6783 36.786 59.2055C37.121 58.7595 37.7395 58.3535 38.6315 58.3535C39.7366 58.3535 40.5175 58.9213 40.5175 59.7936V63.7992H39.9193V59.7936C39.9193 59.2258 39.321 58.8401 38.4691 58.8401C37.5968 58.8401 36.9579 59.2353 36.9275 59.8139V63.7992H36.3394V59.7936H36.34Z" fill="black"/>
<path d="M40.6969 63.9779H39.7422V59.7941C39.7422 59.338 39.2194 59.0195 38.4702 59.0195C37.695 59.0195 37.1355 59.3481 37.1069 59.8195V63.9779H36.1623V59.7941C36.1623 59.338 35.6351 59.0195 34.8802 59.0195C34.0916 59.0195 33.5353 59.3564 33.527 59.8379V63.9779H32.5723V58.2468H33.527V58.6408C33.9432 58.3388 34.4678 58.1758 35.042 58.1758C35.8191 58.1758 36.4586 58.4441 36.8081 58.9047C37.2535 58.4384 37.9037 58.1758 38.632 58.1758C39.8475 58.1758 40.6963 58.8413 40.6963 59.7941V63.9779H40.6969ZM40.0987 63.6214H40.3404V59.7941C40.3404 59.0392 39.654 58.5323 38.6326 58.5323C37.9773 58.5323 37.5294 58.7626 37.2471 58.9884C37.551 58.7829 37.976 58.6624 38.4702 58.6624C39.4288 58.6624 40.0987 59.128 40.0987 59.7941V63.6214ZM36.5188 63.6214H36.7504V59.8049C36.758 59.6603 36.7967 59.5251 36.862 59.4021L36.7561 59.5435L36.6273 59.2853C36.3913 58.814 35.7988 58.5323 35.0426 58.5323C34.3904 58.5323 33.9464 58.7639 33.6761 58.9764C33.9762 58.7778 34.3936 58.6624 34.8802 58.6624C35.8451 58.6624 36.5188 59.128 36.5188 59.7941V63.6214ZM32.9288 63.6214H33.1705V59.8347C33.1737 59.64 33.232 59.4617 33.3361 59.3063L33.1705 59.4814V58.6034H32.9288V63.6214Z" fill="black"/>
<path d="M42.2114 59.9255C42.2114 59.0025 43.1345 58.3535 44.4527 58.3535C45.7609 58.3535 46.6839 59.0025 46.6839 59.9255V61.3352H42.8001V62.3191C42.8001 62.9478 43.4796 63.3938 44.4534 63.3938C45.417 63.3938 46.0965 62.9478 46.0965 62.3191V62.1263H46.6845V62.2988C46.6845 63.2219 45.7615 63.8708 44.4534 63.8708C43.1351 63.8708 42.2121 63.2219 42.2121 62.2988V59.9255H42.2114ZM42.7995 59.9052V60.8587H46.0952V59.9052C46.0952 59.2766 45.4157 58.8407 44.4521 58.8407C43.4789 58.8407 42.7995 59.2766 42.7995 59.9052Z" fill="black"/>
<path d="M44.4528 64.0496C43.0279 64.0496 42.0332 63.3302 42.0332 62.2993V59.9261C42.0332 58.8958 43.0279 58.1758 44.4528 58.1758C45.8713 58.1758 46.8622 58.8952 46.8622 59.9261V61.514H42.9784V62.319C42.9784 62.8468 43.5849 63.2154 44.4528 63.2154C45.3016 63.2154 45.917 62.8386 45.917 62.319V61.9479H46.8616V62.2987C46.8622 63.3302 45.8713 64.0496 44.4528 64.0496ZM44.4528 58.5329C43.2385 58.5329 42.3897 59.1058 42.3897 59.9267V62.3C42.3897 63.1202 43.2379 63.6937 44.4528 63.6937C45.6588 63.6937 46.5012 63.1234 46.5057 62.3063H46.2741V62.3209C46.2741 63.0587 45.5249 63.5745 44.4528 63.5745C43.3743 63.5745 42.6213 63.0593 42.6213 62.3209V61.1587H46.505V59.9273C46.505 59.1064 45.6613 58.5329 44.4528 58.5329ZM46.2741 61.0382H42.6219V59.9064C42.6219 59.1743 43.3749 58.663 44.4534 58.663C45.5255 58.663 46.2748 59.1743 46.2748 59.9064V61.0382H46.2741ZM42.9778 60.6816H45.917V59.907C45.917 59.3849 45.3149 59.0208 44.4528 59.0208C43.5843 59.0208 42.9784 59.3856 42.9784 59.907V60.6816H42.9778Z" fill="black"/>
<path d="M48.3164 58.4246H48.9146V59.2157C49.3302 58.7595 50.0502 58.3535 50.9732 58.3535V58.8705C49.7971 58.8705 48.9552 59.3673 48.9146 60.067V63.7992H48.3164V58.4246Z" fill="black"/>
<path d="M49.0934 63.9779H48.1387V58.2468H49.0934V58.8089C49.4633 58.5164 50.0856 58.1758 50.9738 58.1758H51.152V59.05H50.9738C49.9213 59.05 49.1321 59.4801 49.0934 60.0739V63.9779ZM48.4952 63.6214H48.7369V60.0574C48.7813 59.2923 49.6181 58.7467 50.7955 58.6966V58.538C50.1129 58.5818 49.469 58.873 49.0471 59.3361L48.7369 59.6768V58.6034H48.4952V63.6214Z" fill="black"/>
<path d="M55.8717 59.9059C55.8717 59.2772 55.1923 58.8414 54.2286 58.8414C53.2548 58.8414 52.5754 59.2772 52.5754 59.9059V62.3191C52.5754 62.9478 53.2548 63.3938 54.2286 63.3938C55.1923 63.3938 55.8717 62.9478 55.8717 62.3191V62.0045H56.4598V62.2988C56.4598 63.2219 55.5367 63.8708 54.2286 63.8708C52.9103 63.8708 51.9873 63.2219 51.9873 62.2988V59.9255C51.9873 59.0025 52.9103 58.3535 54.2286 58.3535C55.5367 58.3535 56.4598 59.0025 56.4598 59.9255V60.2199H55.8717V59.9059Z" fill="black"/>
<path d="M54.2291 64.0496C52.8043 64.0496 51.8096 63.3302 51.8096 62.2993V59.9261C51.8096 58.8958 52.8043 58.1758 54.2291 58.1758C55.6476 58.1758 56.6386 58.8952 56.6386 59.9261V60.3987H55.694V59.9058C55.694 59.3837 55.0919 59.0195 54.2298 59.0195C53.3613 59.0195 52.7554 59.3843 52.7554 59.9058V62.319C52.7554 62.8468 53.3619 63.2154 54.2298 63.2154C55.0786 63.2154 55.694 62.8386 55.694 62.319V61.8261H56.6386V62.2987C56.6386 63.3302 55.6476 64.0496 54.2291 64.0496ZM54.2291 58.5329C53.0149 58.5329 52.1661 59.1058 52.1661 59.9267V62.3C52.1661 63.1202 53.0143 63.6937 54.2291 63.6937C55.4377 63.6937 56.282 63.1209 56.282 62.3V62.1839H56.0505V62.3196C56.0505 63.0574 55.3013 63.5732 54.2291 63.5732C53.1507 63.5732 52.3976 63.0581 52.3976 62.3196V59.9064C52.3976 59.1743 53.1507 58.663 54.2291 58.663C55.3013 58.663 56.0505 59.1743 56.0505 59.9064V60.0422H56.282V59.9267C56.282 59.1064 55.4377 58.5329 54.2291 58.5329Z" fill="black"/>
<path d="M57.9307 59.9255C57.9307 59.0025 58.8537 58.3535 60.172 58.3535C61.4801 58.3535 62.4031 59.0025 62.4031 59.9255V61.3352H58.5194V62.3191C58.5194 62.9478 59.1988 63.3938 60.1726 63.3938C61.1363 63.3938 61.8157 62.9478 61.8157 62.3191V62.1263H62.4038V62.2988C62.4038 63.2219 61.4807 63.8708 60.1726 63.8708C58.8543 63.8708 57.9313 63.2219 57.9313 62.2988V59.9255H57.9307ZM58.5187 59.9052V60.8587H61.8144V59.9052C61.8144 59.2766 61.135 58.8407 60.1713 58.8407C59.1982 58.8407 58.5187 59.2766 58.5187 59.9052Z" fill="black"/>
<path d="M60.171 64.0496C58.7462 64.0496 57.7515 63.3302 57.7515 62.2993V59.9261C57.7515 58.8958 58.7462 58.1758 60.171 58.1758C61.5895 58.1758 62.5805 58.8952 62.5805 59.9261V61.514H58.6967V62.319C58.6967 62.8468 59.3032 63.2154 60.171 63.2154C61.0199 63.2154 61.6359 62.8386 61.6359 62.319V61.9479H62.5805V62.2987C62.5805 63.3302 61.5902 64.0496 60.171 64.0496ZM60.171 58.5329C58.9568 58.5329 58.108 59.1058 58.108 59.9267V62.3C58.108 63.1202 58.9562 63.6937 60.171 63.6937C61.377 63.6937 62.2195 63.1234 62.2239 62.3063H61.9924V62.3209C61.9924 63.0587 61.2432 63.5745 60.171 63.5745C59.0926 63.5745 58.3395 63.0593 58.3395 62.3209V61.1587H62.2233V59.9273C62.2239 59.1064 61.3796 58.5329 60.171 58.5329ZM61.9924 61.0382H58.3402V59.9064C58.3402 59.1743 59.0932 58.663 60.1717 58.663C61.2438 58.663 61.993 59.1743 61.993 59.9064V61.0382H61.9924ZM58.6967 60.6816H61.6359V59.907C61.6359 59.3849 61.0338 59.0208 60.171 59.0208C59.3026 59.0208 58.6967 59.3856 58.6967 59.907V60.6816Z" fill="black"/>
<path d="M66.6211 63.8V56.7012H67.2396V60.007H71.3061V56.7012H71.9246V63.8H71.3061V60.5247H67.2396V63.8H66.6211Z" fill="#DBBB25"/>
<path d="M73.8511 56.8105H74.4493V57.561H73.8511V56.8105ZM73.8511 58.4225H74.4493V63.7971H73.8511V58.4225Z" fill="#DBBB25"/>
<path d="M75.5444 58.4238H76.1528L78.1099 63.0987L80.0569 58.4238H80.6653L78.4036 63.7984H77.8054L75.5444 58.4238Z" fill="#DBBB25"/>
<path d="M81.5278 59.9236C81.5278 59.0005 82.4509 58.3516 83.7691 58.3516C85.0773 58.3516 86.0003 59.0005 86.0003 59.9236V61.3332H82.1166V62.3172C82.1166 62.9458 82.796 63.3918 83.7691 63.3918C84.7328 63.3918 85.4122 62.9458 85.4122 62.3172V62.1243H86.0003V62.2969C86.0003 63.2199 85.0773 63.8689 83.7691 63.8689C82.4509 63.8689 81.5278 63.2199 81.5278 62.2969V59.9236ZM82.1159 59.9033V60.8568H85.4116V59.9033C85.4116 59.2746 84.7321 58.8388 83.7685 58.8388C82.7953 58.8388 82.1159 59.2746 82.1159 59.9033Z" fill="#DBBB25"/>
<defs>
<linearGradient id="paint0_linear_2752_8499" x1="50.9951" y1="11.3744" x2="40.1665" y2="11.3744" gradientUnits="userSpaceOnUse">
<stop stop-color="#FFFC03"/>
<stop offset="0.257725" stop-color="#FFDF01"/>
<stop offset="0.697725" stop-color="#FFB900"/>
<stop offset="1" stop-color="#EE9B0F"/>
</linearGradient>
<linearGradient id="paint1_linear_2752_8499" x1="55.1847" y1="13.8534" x2="44.9634" y2="13.8534" gradientUnits="userSpaceOnUse">
<stop stop-color="#FFFC03"/>
<stop offset="0.257725" stop-color="#FFDF01"/>
<stop offset="0.697725" stop-color="#FFB900"/>
<stop offset="1" stop-color="#EE9B0F"/>
</linearGradient>
<linearGradient id="paint2_linear_2752_8499" x1="55.8329" y1="15.0278" x2="48.4653" y2="15.0278" gradientUnits="userSpaceOnUse">
<stop stop-color="#FFFC03"/>
<stop offset="0.257725" stop-color="#FFDF01"/>
<stop offset="0.697725" stop-color="#FFB900"/>
<stop offset="1" stop-color="#EE9B0F"/>
</linearGradient>
<linearGradient id="paint3_linear_2752_8499" x1="66.8643" y1="34.8841" x2="58.6265" y2="34.8841" gradientUnits="userSpaceOnUse">
<stop stop-color="#FFFC03"/>
<stop offset="0.257725" stop-color="#FFDF01"/>
<stop offset="0.697725" stop-color="#FFB900"/>
<stop offset="1" stop-color="#EE9B0F"/>
</linearGradient>
<linearGradient id="paint4_linear_2752_8499" x1="58.4241" y1="29.3774" x2="51.0972" y2="29.3774" gradientUnits="userSpaceOnUse">
<stop stop-color="#FFFC03"/>
<stop offset="0.257725" stop-color="#FFDF01"/>
<stop offset="0.697725" stop-color="#FFB900"/>
<stop offset="1" stop-color="#EE9B0F"/>
</linearGradient>
<linearGradient id="paint5_linear_2752_8499" x1="62.6543" y1="31.7464" x2="55.0034" y2="31.7464" gradientUnits="userSpaceOnUse">
<stop stop-color="#FFFC03"/>
<stop offset="0.257725" stop-color="#FFDF01"/>
<stop offset="0.697725" stop-color="#FFB900"/>
<stop offset="1" stop-color="#EE9B0F"/>
</linearGradient>
<linearGradient id="paint6_linear_2752_8499" x1="37.3741" y1="34.8841" x2="29.1362" y2="34.8841" gradientUnits="userSpaceOnUse">
<stop stop-color="#FFFC03"/>
<stop offset="0.257725" stop-color="#FFDF01"/>
<stop offset="0.697725" stop-color="#FFB900"/>
<stop offset="1" stop-color="#EE9B0F"/>
</linearGradient>
<linearGradient id="paint7_linear_2752_8499" x1="44.8824" y1="29.3774" x2="37.5757" y2="29.3774" gradientUnits="userSpaceOnUse">
<stop stop-color="#FFFC03"/>
<stop offset="0.257725" stop-color="#FFDF01"/>
<stop offset="0.697725" stop-color="#FFB900"/>
<stop offset="1" stop-color="#EE9B0F"/>
</linearGradient>
<linearGradient id="paint8_linear_2752_8499" x1="40.9971" y1="31.7464" x2="33.3462" y2="31.7464" gradientUnits="userSpaceOnUse">
<stop stop-color="#FFFC03"/>
<stop offset="0.257725" stop-color="#FFDF01"/>
<stop offset="0.697725" stop-color="#FFB900"/>
<stop offset="1" stop-color="#EE9B0F"/>
</linearGradient>
</defs>
</svg>
