<svg version="1.1" id="Layer_1" xmlns="http://www.w3.org/2000/svg" xmlns:xlink="http://www.w3.org/1999/xlink" x="0px" y="0px"
	 width="100%" viewBox="0 0 750 1000" enable-background="new 0 0 750 1000" xml:space="preserve">
<path fill="#F8F8F8" opacity="1.000000" stroke="none" 
	d="
M460.000000,1001.000000 
	C306.666656,1001.000000 153.833328,1001.000000 1.000000,1001.000000 
	C1.000000,667.666687 1.000000,334.333344 1.000000,1.000000 
	C251.000000,1.000000 501.000000,1.000000 751.000000,1.000000 
	C751.000000,334.333344 751.000000,667.666687 751.000000,1001.000000 
	C654.166687,1001.000000 557.333313,1001.000000 460.000000,1001.000000 
M160.778442,325.906830 
	C160.767426,398.281097 160.744659,470.655396 160.766022,543.029663 
	C160.767883,549.339233 161.060120,555.648621 161.118439,562.788330 
	C164.288971,576.594788 166.231018,590.828979 170.861389,604.127136 
	C184.514633,643.338440 210.414536,673.911682 241.893127,700.088928 
	C280.561584,732.245178 324.645599,754.612610 371.877655,771.128296 
	C373.998169,771.869812 376.814240,771.883972 378.938843,771.159302 
	C403.390533,762.819397 427.021545,752.579895 449.668640,740.100342 
	C485.950500,720.107422 519.035522,696.063538 545.625793,663.915039 
	C563.535339,642.261780 577.185547,618.268372 584.748047,590.994690 
	C589.954285,572.218872 590.613892,553.008972 590.757629,533.734375 
	C590.787048,529.794617 590.271301,525.850830 590.202393,521.008667 
	C590.202393,423.798004 590.202393,326.587341 590.202393,229.251114 
	C573.282776,229.251114 556.672363,229.251114 539.184631,229.149399 
	C533.129272,229.759460 527.084534,230.561310 521.014038,230.899567 
	C517.930115,231.071411 514.765259,229.962540 511.696106,230.199036 
	C497.631317,231.282761 483.525452,232.164612 469.549286,233.995987 
	C442.775635,237.504257 415.990173,241.084656 389.384918,245.655624 
	C372.889923,248.489563 356.721375,253.217560 340.399078,257.064850 
	C330.385162,259.425171 320.131439,261.029663 310.379272,264.189240 
	C282.732635,273.146515 255.012192,282.000031 227.852539,292.296936 
	C206.263748,300.481720 185.451233,310.716705 164.316193,320.091339 
	C162.300659,320.985352 159.561920,321.641876 160.778442,325.906830 
z"/>
<path fill="#01467C" opacity="1.000000" stroke="none" 
	d="
M590.006836,521.908875 
	C590.271301,525.850830 590.787048,529.794617 590.757629,533.734375 
	C590.613892,553.008972 589.954285,572.218872 584.748047,590.994690 
	C577.185547,618.268372 563.535339,642.261780 545.625793,663.915039 
	C519.035522,696.063538 485.950500,720.107422 449.668640,740.100342 
	C427.021545,752.579895 403.390533,762.819397 378.938843,771.159302 
	C376.814240,771.883972 373.998169,771.869812 371.877655,771.128296 
	C324.645599,754.612610 280.561584,732.245178 241.893127,700.088928 
	C210.414536,673.911682 184.514633,643.338440 170.861389,604.127136 
	C166.231018,590.828979 164.288971,576.594788 161.415421,562.045593 
	C161.813828,560.151001 162.003922,558.999084 162.004059,557.847229 
	C162.012848,481.787506 162.012314,405.727814 161.959061,329.668121 
	C161.957977,328.107941 161.329208,326.548248 160.993271,324.988312 
	C159.561920,321.641876 162.300659,320.985352 164.316193,320.091339 
	C185.451233,310.716705 206.263748,300.481720 227.852539,292.296936 
	C255.012192,282.000031 282.732635,273.146515 310.379272,264.189240 
	C320.131439,261.029663 330.385162,259.425171 340.399078,257.064850 
	C356.721375,253.217560 372.889923,248.489563 389.384918,245.655624 
	C415.990173,241.084656 442.775635,237.504257 469.549286,233.995987 
	C483.525452,232.164612 497.631317,231.282761 511.696106,230.199036 
	C514.765259,229.962540 517.930115,231.071411 521.014038,230.899567 
	C527.084534,230.561310 533.129272,229.759460 539.955383,229.437897 
	C554.696594,229.821289 568.667053,229.927750 582.637573,230.005829 
	C589.008362,230.041428 589.006165,230.016006 589.005981,236.600143 
	C589.002747,329.649841 588.993774,422.699524 589.039734,515.749207 
	C589.040771,517.802551 589.670410,519.855652 590.006836,521.908875 
M552.296875,264.272125 
	C544.033936,264.191681 535.770996,264.073669 527.508240,264.089874 
	C526.695679,264.091461 525.884705,264.916687 524.386108,265.839294 
	C503.126495,267.526733 481.814789,268.735809 460.622711,271.043427 
	C441.512634,273.124390 422.426697,275.824707 403.519775,279.287628 
	C368.272858,285.743286 333.497742,294.303528 299.296173,305.069824 
	C263.843964,316.229858 229.147247,329.362518 194.697830,345.497620 
	C194.465408,346.770599 194.030273,348.043518 194.029648,349.316589 
	C193.997452,414.713440 193.993149,480.110291 194.060730,545.507080 
	C194.062256,546.979492 194.924805,548.451050 195.851959,550.611023 
	C196.345932,575.966553 204.490067,598.959961 217.718155,620.281250 
	C230.618042,641.073303 247.450836,658.354004 266.257690,673.849548 
	C298.168762,700.142212 334.355316,718.726929 372.835724,733.185669 
	C374.395813,733.771851 376.526428,733.980408 378.029694,733.410828 
	C419.791901,717.585815 458.843811,696.979309 492.595428,667.308289 
	C514.349304,648.184326 532.613708,626.348877 544.301453,599.458679 
	C550.916626,584.238953 554.276367,568.342041 556.320251,551.497803 
	C556.548523,550.222046 556.976196,548.946350 556.976624,547.670532 
	C557.007507,454.972992 557.010559,362.275482 556.948669,269.577972 
	C556.947693,268.098907 556.116577,266.620361 554.989868,265.057709 
	C554.309814,264.960846 553.629761,264.863983 552.296875,264.272125 
z"/>
<path fill="#003059" opacity="1.000000" stroke="none" 
	d="
M590.104614,521.458740 
	C589.670410,519.855652 589.040771,517.802551 589.039734,515.749207 
	C588.993774,422.699524 589.002747,329.649841 589.005981,236.600143 
	C589.006165,230.016006 589.008362,230.041428 582.637573,230.005829 
	C568.667053,229.927750 554.696594,229.821289 540.394043,229.488770 
	C556.672363,229.251114 573.282776,229.251114 590.202393,229.251114 
	C590.202393,326.587341 590.202393,423.798004 590.104614,521.458740 
z"/>
<path fill="#043463" opacity="1.000000" stroke="none" 
	d="
M160.885864,325.447571 
	C161.329208,326.548248 161.957977,328.107941 161.959061,329.668121 
	C162.012314,405.727814 162.012848,481.787506 162.004059,557.847229 
	C162.003922,558.999084 161.813828,560.151001 161.464935,561.630493 
	C161.060120,555.648621 160.767883,549.339233 160.766022,543.029663 
	C160.744659,470.655396 160.767426,398.281097 160.885864,325.447571 
z"/>
<path fill="#F7F7F8" opacity="1.000000" stroke="none" 
	d="
M555.570007,551.908936 
	C554.276367,568.342041 550.916626,584.238953 544.301453,599.458679 
	C532.613708,626.348877 514.349304,648.184326 492.595428,667.308289 
	C458.843811,696.979309 419.791901,717.585815 378.029694,733.410828 
	C376.526428,733.980408 374.395813,733.771851 372.835724,733.185669 
	C334.355316,718.726929 298.168762,700.142212 266.257690,673.849548 
	C247.450836,658.354004 230.618042,641.073303 217.718155,620.281250 
	C204.490067,598.959961 196.345932,575.966553 195.617645,549.802734 
	C195.383072,546.995544 195.381973,544.996643 195.382690,542.997803 
	C195.406311,477.029236 195.430084,411.060669 195.453842,345.092102 
	C229.147247,329.362518 263.843964,316.229858 299.296173,305.069824 
	C333.497742,294.303528 368.272858,285.743286 403.519775,279.287628 
	C422.426697,275.824707 441.512634,273.124390 460.622711,271.043427 
	C481.814789,268.735809 503.126495,267.526733 525.194580,265.613770 
	C534.985291,265.181213 543.967468,264.974182 552.949707,264.767151 
	C553.629761,264.863983 554.309814,264.960846 555.327515,265.555908 
	C555.645691,269.552216 555.609741,273.050354 555.609192,276.548462 
	C555.593933,368.335297 555.582275,460.122101 555.570007,551.908936 
M304.984253,590.008606 
	C304.984253,590.008606 304.920135,590.037292 305.214996,590.569946 
	C305.754059,590.837402 306.293121,591.104858 306.854767,591.213562 
	C306.854767,591.213562 306.701935,591.262207 307.054962,591.790344 
	C307.965118,592.298096 308.875305,592.805847 309.842072,593.172607 
	C309.842072,593.172607 309.690308,593.178894 309.931061,593.688660 
	C310.276154,593.821045 310.621246,593.953369 310.980469,594.010742 
	C310.980469,594.010742 310.914642,594.049438 311.238953,594.611633 
	C311.806274,594.927063 312.373627,595.242432 313.143097,595.877747 
	C313.367371,596.016357 313.610229,596.068420 314.176514,596.589905 
	C314.773743,596.767578 315.370941,596.945312 315.958557,597.042847 
	C315.958557,597.042847 315.881897,597.068298 316.198578,597.585327 
	C316.738495,597.849976 317.278381,598.114685 317.849121,598.203857 
	C317.849121,598.203857 317.675385,598.243225 317.949493,598.730408 
	C318.305267,598.810120 318.661072,598.889832 319.174774,599.182495 
	C319.174774,599.182495 319.423248,599.089966 319.788177,599.629944 
	C320.196136,599.745850 320.604095,599.861694 321.009064,600.003662 
	C321.009064,600.003662 321.028442,599.982178 321.443390,600.382324 
	C321.957703,600.613953 322.472046,600.845581 322.988037,601.008118 
	C322.988037,601.008118 322.926788,601.040100 323.223694,601.592224 
	C323.815308,601.730225 324.406891,601.868164 325.217163,602.238037 
	C325.217163,602.238037 325.520203,602.139282 325.917480,602.705933 
	C326.572845,602.926147 327.228180,603.146362 327.886200,603.158386 
	C327.886200,603.158386 327.684357,603.209534 327.951111,603.704529 
	C328.306152,603.789490 328.661224,603.874451 329.025482,604.009338 
	C329.025482,604.009338 329.059113,603.971313 329.565186,604.433289 
	C331.045654,604.958130 332.526154,605.482971 334.205353,606.232483 
	C334.205353,606.232483 334.482361,606.117493 334.920105,606.679504 
	C335.609314,606.822754 336.298492,606.966003 336.973724,607.033752 
	C336.973724,607.033752 336.902344,607.062012 337.390198,607.717712 
	C339.767395,608.656677 340.109558,607.524963 340.108276,605.397522 
	C340.104401,598.955566 340.360809,592.513611 340.366516,586.071472 
	C340.367493,584.939209 339.647583,583.806274 339.192017,582.801514 
	C339.192017,582.801514 339.337036,582.797485 339.081024,582.290527 
	C338.733429,582.155212 338.385803,582.019958 337.724487,581.293518 
	C335.759735,579.772156 333.755005,578.299377 331.836182,576.722168 
	C304.973694,554.640869 290.884064,526.145813 288.972321,491.495331 
	C288.223389,477.921265 289.108246,464.402710 292.235626,451.257721 
	C299.606415,420.276703 316.847351,397.738739 348.733856,388.879425 
	C356.351624,386.762939 364.258514,385.687103 372.946869,384.315430 
	C381.617462,384.170074 390.288086,384.024719 399.773895,384.129974 
	C409.952606,386.118195 420.389526,387.263885 430.251343,390.286163 
	C446.251770,395.189728 459.241547,404.007904 462.728210,422.071228 
	C463.919647,428.243713 465.005615,434.436584 466.139801,440.620148 
	C466.531891,440.703857 466.924011,440.787598 467.316132,440.871307 
	C468.474579,438.244507 469.633026,435.617676 470.995880,432.071533 
	C471.122040,423.069489 471.248230,414.067474 471.852173,404.378601 
	C471.852173,396.290833 471.852173,388.203064 471.852173,379.736389 
	C471.258392,379.626282 469.814758,379.284729 468.351379,379.098694 
	C455.012177,377.402649 441.667389,375.750275 428.328705,374.050079 
	C421.204010,373.141968 414.088074,372.164948 406.052673,371.015717 
	C395.719055,371.086578 385.385437,371.157410 374.215424,371.128143 
	C367.330414,372.070831 360.404327,372.782074 353.567566,373.996399 
	C324.483276,379.162354 299.801544,392.438385 282.585785,416.677979 
	C252.047287,459.675903 249.528290,505.559387 272.103363,552.754944 
	C279.182617,567.554871 290.010834,579.784790 304.018829,589.580933 
	C304.339752,589.746887 304.660645,589.912842 304.984253,590.008606 
M376.927185,662.985901 
	C385.298553,663.036255 393.669952,663.086609 402.741577,663.588501 
	C405.381561,663.695129 408.022766,663.914490 410.661285,663.885559 
	C416.785980,663.818481 422.923065,663.812683 429.022827,663.353271 
	C430.380493,663.251038 431.605072,661.381409 432.890900,660.325500 
	C431.700043,659.492432 430.590240,658.110840 429.304352,657.920837 
	C423.602112,657.078186 417.848175,656.587891 412.115143,655.950378 
	C404.450348,655.098022 400.407440,651.577698 399.034882,644.007996 
	C398.191132,639.354675 397.885132,634.603821 397.345612,628.973083 
	C397.345612,552.020691 397.345612,475.068298 397.345612,398.213013 
	C390.306946,398.213013 384.179535,398.213013 377.202057,398.123260 
	C369.535065,399.412964 361.868042,400.702698 354.025421,402.920898 
	C354.091278,430.265442 354.157104,457.609955 354.123047,485.892609 
	C354.152985,510.593658 354.182953,535.294678 354.005524,560.917358 
	C353.961670,584.272278 353.917847,607.627197 353.421295,631.678406 
	C353.269043,633.659973 353.078125,635.639465 352.970673,637.623413 
	C352.171478,652.378418 348.725891,655.922668 334.255585,657.121826 
	C331.209625,657.374207 328.199646,658.060730 324.321533,658.684143 
	C330.911346,664.950195 337.961182,664.368530 345.889618,663.839600 
	C354.580627,663.485229 363.271637,663.130859 372.727783,662.869568 
	C373.495636,662.829773 374.263489,662.789917 375.507477,662.928894 
	C375.672882,662.892151 375.838257,662.855408 376.927185,662.985901 
M425.831177,615.888855 
	C436.691101,613.894531 447.582947,612.055054 458.394867,609.827576 
	C462.556122,608.970337 465.212860,606.069458 466.121002,601.689636 
	C468.366180,590.861572 470.839508,580.079468 472.972656,569.230042 
	C474.001801,563.995789 475.755981,558.431091 470.097809,553.940430 
	C468.694855,558.231934 467.279114,562.408569 465.962982,566.616455 
	C461.608307,580.539062 454.067169,591.928955 439.472656,596.373474 
	C430.555756,599.088989 421.177643,600.289917 411.261292,602.158813 
	C411.261292,607.039551 411.261292,611.920288 411.261292,616.728699 
	C416.057434,616.402527 420.510925,616.099609 425.831177,615.888855 
M403.927887,334.249817 
	C410.593750,332.713806 417.259644,331.177795 424.010071,329.622314 
	C422.620972,326.240082 420.492767,324.575134 416.670502,325.047668 
	C413.888000,325.391632 411.016998,324.937744 408.191864,325.031891 
	C393.790588,325.511810 379.394440,326.221283 364.989838,326.482452 
	C360.103577,326.571045 355.202667,325.244263 350.299683,325.173737 
	C344.239716,325.086517 338.141266,326.106750 332.116425,325.731873 
	C328.451324,325.503815 327.119263,326.955505 326.290039,328.931000 
	C334.000610,331.369415 342.586273,332.287201 348.913910,336.553772 
	C356.336945,341.558990 353.316559,351.434357 354.261383,358.868469 
	C368.524506,358.009247 382.563232,357.163544 397.100525,356.287811 
	C397.100525,354.926300 396.891785,353.272095 397.137512,351.688446 
	C398.078339,345.625977 397.038940,338.814423 403.927887,334.249817 
z"/>
<path fill="#013469" opacity="1.000000" stroke="none" 
	d="
M555.945129,551.703369 
	C555.582275,460.122101 555.593933,368.335297 555.609192,276.548462 
	C555.609741,273.050354 555.645691,269.552216 555.669006,265.597839 
	C556.116577,266.620361 556.947693,268.098907 556.948669,269.577972 
	C557.010559,362.275482 557.007507,454.972992 556.976624,547.670532 
	C556.976196,548.946350 556.548523,550.222046 555.945129,551.703369 
z"/>
<path fill="#023061" opacity="1.000000" stroke="none" 
	d="
M195.075836,345.294861 
	C195.430084,411.060669 195.406311,477.029236 195.382690,542.997803 
	C195.381973,544.996643 195.383072,546.995544 195.384521,549.458679 
	C194.924805,548.451050 194.062256,546.979492 194.060730,545.507080 
	C193.993149,480.110291 193.997452,414.713440 194.029648,349.316589 
	C194.030273,348.043518 194.465408,346.770599 195.075836,345.294861 
z"/>
<path fill="#022A59" opacity="1.000000" stroke="none" 
	d="
M552.623291,264.519623 
	C543.967468,264.974182 534.985291,265.181213 525.538025,265.373932 
	C525.884705,264.916687 526.695679,264.091461 527.508240,264.089874 
	C535.770996,264.073669 544.033936,264.191681 552.623291,264.519623 
z"/>
<path fill="#02477D" opacity="1.000000" stroke="none" 
	d="
M354.212891,559.995728 
	C354.182953,535.294678 354.152985,510.593658 354.422546,485.097290 
	C354.816315,483.650726 354.992645,482.999542 354.992981,482.348297 
	C355.005493,456.819916 355.013367,431.291534 354.966675,405.763245 
	C354.964386,404.505829 354.467590,403.249359 354.201050,401.992432 
	C361.868042,400.702698 369.535065,399.412964 377.948853,398.422058 
	C382.180878,398.812653 385.665802,398.960754 389.151520,398.984344 
	C395.984314,399.030579 395.991425,399.001862 395.992249,405.625549 
	C396.001221,478.394684 395.997345,551.163818 396.070496,623.932922 
	C396.072479,625.921265 396.896790,627.908875 397.337646,629.896790 
	C397.885132,634.603821 398.191132,639.354675 399.034882,644.007996 
	C400.407440,651.577698 404.450348,655.098022 412.115143,655.950378 
	C417.848175,656.587891 423.602112,657.078186 429.304352,657.920837 
	C430.590240,658.110840 431.700043,659.492432 432.890930,660.325500 
	C431.605072,661.381409 430.380493,663.251038 429.022827,663.353271 
	C422.923065,663.812683 416.785980,663.818481 410.661285,663.885559 
	C408.022766,663.914490 405.381561,663.695129 402.112366,663.043335 
	C392.991302,662.348938 384.499420,662.199707 375.810730,662.112671 
	C375.367798,662.314026 375.173615,662.505798 375.031342,662.750122 
	C374.263489,662.789917 373.495636,662.829773 372.017029,662.575195 
	C363.409576,662.197205 355.512573,662.060059 347.616577,662.105713 
	C346.749084,662.110718 345.887604,663.165100 345.023346,663.732727 
	C337.961182,664.368530 330.911346,664.950195 324.321533,658.684143 
	C328.199646,658.060730 331.209625,657.374207 334.255585,657.121826 
	C348.725891,655.922668 352.171478,652.378418 352.970673,637.623413 
	C353.078125,635.639465 353.269043,633.659973 353.969574,631.063110 
	C354.670593,629.644470 354.955414,628.841248 354.956848,628.037537 
	C354.996002,606.446716 355.017853,584.855896 354.986603,563.265076 
	C354.985016,562.174866 354.482300,561.085510 354.212891,559.995728 
z"/>
<path fill="#03467C" opacity="1.000000" stroke="none" 
	d="
M372.032440,384.132629 
	C364.258514,385.687103 356.351624,386.762939 348.733856,388.879425 
	C316.847351,397.738739 299.606415,420.276703 292.235626,451.257721 
	C289.108246,464.402710 288.223389,477.921265 288.972321,491.495331 
	C290.884064,526.145813 304.973694,554.640869 331.836182,576.722168 
	C333.755005,578.299377 335.759735,579.772156 338.017395,581.837158 
	C338.652527,582.519653 338.994781,582.658569 339.337036,582.797485 
	C339.337036,582.797485 339.192017,582.801514 339.141449,583.226318 
	C339.055969,590.037537 339.144043,596.428772 338.892365,602.806519 
	C338.835449,604.248962 337.596954,605.644775 336.902344,607.062012 
	C336.902344,607.062012 336.973724,607.033752 336.771362,606.776794 
	C335.873474,606.385742 335.177917,606.251587 334.482361,606.117493 
	C334.482361,606.117493 334.205353,606.232483 334.037384,605.753906 
	C332.265961,604.840698 330.662537,604.406006 329.059113,603.971313 
	C329.059113,603.971313 329.025482,604.009338 328.866821,603.760620 
	C328.366882,603.411072 328.025635,603.310303 327.684357,603.209534 
	C327.684357,603.209534 327.886200,603.158386 327.735535,602.920654 
	C326.896667,602.501770 326.208435,602.320557 325.520203,602.139282 
	C325.520203,602.139282 325.217163,602.238037 324.940216,601.866211 
	C324.084442,601.342957 323.505615,601.191528 322.926788,601.040100 
	C322.926788,601.040100 322.988037,601.008118 322.841187,600.781982 
	C322.139069,600.364563 321.583740,600.173401 321.028442,599.982178 
	C321.028442,599.982178 321.009064,600.003662 320.813843,599.743469 
	C320.220154,599.352173 319.821716,599.221069 319.423248,599.089966 
	C319.423248,599.089966 319.174774,599.182495 318.940491,598.851379 
	C318.362610,598.427917 318.019012,598.335571 317.675385,598.243225 
	C317.675385,598.243225 317.849121,598.203857 317.747498,597.971313 
	C317.057892,597.515320 316.469879,597.291809 315.881897,597.068359 
	C315.881897,597.068298 315.958557,597.042847 315.807617,596.804199 
	C315.061646,596.388306 314.466644,596.211121 313.871613,596.033936 
	C313.610229,596.068420 313.367371,596.016357 312.926453,595.387939 
	C312.111450,594.615173 311.513062,594.332275 310.914642,594.049438 
	C310.914642,594.049438 310.980469,594.010742 310.840546,593.802979 
	C310.363831,593.456421 310.027069,593.317688 309.690308,593.178955 
	C309.690308,593.178894 309.842072,593.172607 309.828857,592.855042 
	C308.777710,592.112366 307.739807,591.687317 306.701904,591.262207 
	C306.701935,591.262207 306.854767,591.213562 306.757141,590.975220 
	C306.079712,590.503601 305.499939,590.270447 304.920135,590.037292 
	C304.920135,590.037292 304.984253,590.008606 304.864288,589.799744 
	C304.436310,589.413635 304.128296,589.236450 303.820282,589.059204 
	C290.010834,579.784790 279.182617,567.554871 272.103363,552.754944 
	C249.528290,505.559387 252.047287,459.675903 282.585785,416.677979 
	C299.801544,392.438385 324.483276,379.162354 353.567566,373.996399 
	C360.404327,372.782074 367.330414,372.070831 374.961731,371.423004 
	C381.110687,371.806763 386.515289,372.027191 391.915344,371.946167 
	C396.935486,371.870850 401.950775,371.474213 406.968201,371.219025 
	C414.088074,372.164948 421.204010,373.141968 428.328705,374.050079 
	C441.667389,375.750275 455.012177,377.402649 468.351379,379.098694 
	C469.814758,379.284729 471.258392,379.626282 471.852173,379.736389 
	C471.852173,388.203064 471.852173,396.290833 471.249390,404.944336 
	C470.694885,414.670349 470.743195,423.830597 470.791473,432.990875 
	C469.633026,435.617676 468.474579,438.244507 467.316132,440.871307 
	C466.924011,440.787598 466.531891,440.703857 466.139801,440.620148 
	C465.005615,434.436584 463.919647,428.243713 462.728210,422.071228 
	C459.241547,404.007904 446.251770,395.189728 430.251343,390.286163 
	C420.389526,387.263885 409.952606,386.118195 399.060791,383.727539 
	C391.592957,383.218018 384.837646,383.018982 378.083771,383.060150 
	C376.064575,383.072449 374.049438,383.756409 372.032440,384.132629 
z"/>
<path fill="#04467C" opacity="1.000000" stroke="none" 
	d="
M403.604034,334.453278 
	C397.038940,338.814423 398.078339,345.625977 397.137512,351.688446 
	C396.891785,353.272095 397.100525,354.926300 397.100525,356.287811 
	C382.563232,357.163544 368.524506,358.009247 354.261383,358.868469 
	C353.316559,351.434357 356.336945,341.558990 348.913910,336.553772 
	C342.586273,332.287201 334.000610,331.369415 326.290039,328.931000 
	C327.119263,326.955505 328.451324,325.503815 332.116425,325.731873 
	C338.141266,326.106750 344.239716,325.086517 350.299683,325.173737 
	C355.202667,325.244263 360.103577,326.571045 364.989838,326.482452 
	C379.394440,326.221283 393.790588,325.511810 408.191864,325.031891 
	C411.016998,324.937744 413.888000,325.391632 416.670502,325.047668 
	C420.492767,324.575134 422.620972,326.240082 424.010071,329.622314 
	C417.259644,331.177795 410.593750,332.713806 403.604034,334.453278 
z"/>
<path fill="#05457A" opacity="1.000000" stroke="none" 
	d="
M412.006714,602.171143 
	C421.177643,600.289917 430.555756,599.088989 439.472656,596.373474 
	C454.067169,591.928955 461.608307,580.539062 465.962982,566.616455 
	C467.279114,562.408569 468.694855,558.231934 470.097809,553.940430 
	C475.755981,558.431091 474.001801,563.995789 472.972656,569.230042 
	C470.839508,580.079468 468.366180,590.861572 466.121002,601.689636 
	C465.212860,606.069458 462.556122,608.970337 458.394867,609.827576 
	C447.582947,612.055054 436.691101,613.894531 425.077454,615.588501 
	C420.438507,614.977356 414.840088,616.083679 413.108948,613.990967 
	C411.024658,611.471191 412.227112,606.232666 412.006714,602.171143 
z"/>
<path fill="#022452" opacity="1.000000" stroke="none" 
	d="
M397.341614,629.434937 
	C396.896790,627.908875 396.072479,625.921265 396.070496,623.932922 
	C395.997345,551.163818 396.001221,478.394684 395.992249,405.625549 
	C395.991425,399.001862 395.984314,399.030579 389.151520,398.984344 
	C385.665802,398.960754 382.180878,398.812653 378.373871,398.466919 
	C384.179535,398.213013 390.306946,398.213013 397.345612,398.213013 
	C397.345612,475.068298 397.345612,552.020691 397.341614,629.434937 
z"/>
<path fill="#00204D" opacity="1.000000" stroke="none" 
	d="
M354.113220,402.456665 
	C354.467590,403.249359 354.964386,404.505829 354.966675,405.763245 
	C355.013367,431.291534 355.005493,456.819916 354.992981,482.348297 
	C354.992645,482.999542 354.816315,483.650726 354.472473,484.628235 
	C354.157104,457.609955 354.091278,430.265442 354.113220,402.456665 
z"/>
<path fill="#032754" opacity="1.000000" stroke="none" 
	d="
M354.109222,560.456543 
	C354.482300,561.085510 354.985016,562.174866 354.986603,563.265076 
	C355.017853,584.855896 354.996002,606.446716 354.956848,628.037537 
	C354.955414,628.841248 354.670593,629.644470 354.195923,630.714966 
	C353.917847,607.627197 353.961670,584.272278 354.109222,560.456543 
z"/>
<path fill="#043463" opacity="1.000000" stroke="none" 
	d="
M337.146271,607.389893 
	C337.596954,605.644775 338.835449,604.248962 338.892365,602.806519 
	C339.144043,596.428772 339.055969,590.037537 339.175720,583.162415 
	C339.647583,583.806274 340.367493,584.939209 340.366516,586.071472 
	C340.360809,592.513611 340.104401,598.955566 340.108276,605.397522 
	C340.109558,607.524963 339.767395,608.656677 337.146271,607.389893 
z"/>
<path fill="#022A59" opacity="1.000000" stroke="none" 
	d="
M345.456482,663.786133 
	C345.887604,663.165100 346.749084,662.110718 347.616577,662.105713 
	C355.512573,662.060059 363.409576,662.197205 371.634460,662.528687 
	C363.271637,663.130859 354.580627,663.485229 345.456482,663.786133 
z"/>
<path fill="#022A59" opacity="1.000000" stroke="none" 
	d="
M406.510437,371.117371 
	C401.950775,371.474213 396.935486,371.870850 391.915344,371.946167 
	C386.515289,372.027191 381.110687,371.806763 375.379944,371.473053 
	C385.385437,371.157410 395.719055,371.086578 406.510437,371.117371 
z"/>
<path fill="#023061" opacity="1.000000" stroke="none" 
	d="
M411.633972,602.164978 
	C412.227112,606.232666 411.024658,611.471191 413.108948,613.990967 
	C414.840088,616.083679 420.438507,614.977356 424.644104,615.542480 
	C420.510925,616.099609 416.057434,616.402527 411.261292,616.728699 
	C411.261292,611.920288 411.261292,607.039551 411.633972,602.164978 
z"/>
<path fill="#022A59" opacity="1.000000" stroke="none" 
	d="
M470.893677,432.531189 
	C470.743195,423.830597 470.694885,414.670349 471.010498,405.287750 
	C471.248230,414.067474 471.122040,423.069489 470.893677,432.531189 
z"/>
<path fill="#022452" opacity="1.000000" stroke="none" 
	d="
M372.489655,384.224030 
	C374.049438,383.756409 376.064575,383.072449 378.083771,383.060150 
	C384.837646,383.018982 391.592957,383.218018 398.653198,383.602234 
	C390.288086,384.024719 381.617462,384.170074 372.489655,384.224030 
z"/>
<path fill="#032754" opacity="1.000000" stroke="none" 
	d="
M376.007538,662.050537 
	C384.499420,662.199707 392.991302,662.348938 401.762268,662.817505 
	C393.669952,663.086609 385.298553,663.036255 376.465698,662.710205 
	C376.004211,662.434570 376.007538,662.050537 376.007538,662.050537 
z"/>
<path fill="#043463" opacity="1.000000" stroke="none" 
	d="
M329.312134,604.202271 
	C330.662537,604.406006 332.265961,604.840698 333.938019,605.641602 
	C332.526154,605.482971 331.045654,604.958130 329.312134,604.202271 
z"/>
<path fill="#043463" opacity="1.000000" stroke="none" 
	d="
M306.878418,591.526306 
	C307.739807,591.687317 308.777710,592.112366 309.800537,592.925537 
	C308.875305,592.805847 307.965118,592.298096 306.878418,591.526306 
z"/>
<path fill="#043463" opacity="1.000000" stroke="none" 
	d="
M323.075256,601.316162 
	C323.505615,601.191528 324.084442,601.342957 324.830872,601.750244 
	C324.406891,601.868164 323.815308,601.730225 323.075256,601.316162 
z"/>
<path fill="#043463" opacity="1.000000" stroke="none" 
	d="
M334.701233,606.398499 
	C335.177917,606.251587 335.873474,606.385742 336.778381,606.814575 
	C336.298492,606.966003 335.609314,606.822754 334.701233,606.398499 
z"/>
<path fill="#043463" opacity="1.000000" stroke="none" 
	d="
M325.718842,602.422607 
	C326.208435,602.320557 326.896667,602.501770 327.734222,603.024780 
	C327.228180,603.146362 326.572845,602.926147 325.718842,602.422607 
z"/>
<path fill="#043463" opacity="1.000000" stroke="none" 
	d="
M321.235901,600.182251 
	C321.583740,600.173401 322.139069,600.364563 322.840363,600.816528 
	C322.472046,600.845581 321.957703,600.613953 321.235901,600.182251 
z"/>
<path fill="#043463" opacity="1.000000" stroke="none" 
	d="
M316.040222,597.326843 
	C316.469879,597.291809 317.057892,597.515320 317.732117,598.059082 
	C317.278381,598.114685 316.738495,597.849976 316.040222,597.326843 
z"/>
<path fill="#043463" opacity="1.000000" stroke="none" 
	d="
M314.024048,596.311890 
	C314.466644,596.211121 315.061646,596.388306 315.812378,596.844238 
	C315.370941,596.945312 314.773743,596.767578 314.024048,596.311890 
z"/>
<path fill="#043463" opacity="1.000000" stroke="none" 
	d="
M311.076782,594.330566 
	C311.513062,594.332275 312.111450,594.615173 312.825378,595.227966 
	C312.373627,595.242432 311.806274,594.927063 311.076782,594.330566 
z"/>
<path fill="#043463" opacity="1.000000" stroke="none" 
	d="
M305.067566,590.303589 
	C305.499939,590.270447 306.079712,590.503601 306.745850,591.054565 
	C306.293121,591.104858 305.754059,590.837402 305.067566,590.303589 
z"/>
<path fill="#043463" opacity="1.000000" stroke="none" 
	d="
M319.605713,599.359985 
	C319.821716,599.221069 320.220154,599.352173 320.815308,599.730408 
	C320.604095,599.861694 320.196136,599.745850 319.605713,599.359985 
z"/>
<path fill="#043463" opacity="1.000000" stroke="none" 
	d="
M303.919556,589.320068 
	C304.128296,589.236450 304.436310,589.413635 304.862946,589.834839 
	C304.660645,589.912842 304.339752,589.746887 303.919556,589.320068 
z"/>
<path fill="#043463" opacity="1.000000" stroke="none" 
	d="
M317.812439,598.486816 
	C318.019012,598.335571 318.362610,598.427917 318.861542,598.744873 
	C318.661072,598.889832 318.305267,598.810120 317.812439,598.486816 
z"/>
<path fill="#043463" opacity="1.000000" stroke="none" 
	d="
M339.209045,582.544006 
	C338.994781,582.658569 338.652527,582.519653 338.174225,582.132690 
	C338.385803,582.019958 338.733429,582.155212 339.209045,582.544006 
z"/>
<path fill="#043463" opacity="1.000000" stroke="none" 
	d="
M327.817749,603.457031 
	C328.025635,603.310303 328.366882,603.411072 328.862183,603.735596 
	C328.661224,603.874451 328.306152,603.789490 327.817749,603.457031 
z"/>
<path fill="#022A59" opacity="1.000000" stroke="none" 
	d="
M375.810730,662.112671 
	C376.007538,662.050537 376.004211,662.434570 376.003906,662.626587 
	C375.838257,662.855408 375.672882,662.892151 375.269409,662.839478 
	C375.173615,662.505798 375.367798,662.314026 375.810730,662.112671 
z"/>
<path fill="#043463" opacity="1.000000" stroke="none" 
	d="
M309.810669,593.433838 
	C310.027069,593.317688 310.363831,593.456421 310.833496,593.840454 
	C310.621246,593.953369 310.276154,593.821045 309.810669,593.433838 
z"/>
</svg>